<?xml version="1.0" encoding="iso-8859-1"?>
<!-- Generator: Adobe Illustrator 19.0.0, SVG Export Plug-In . SVG Version: 6.00 Build 0)  -->
<svg version="1.1" id="Layer_1" xmlns="http://www.w3.org/2000/svg" xmlns:xlink="http://www.w3.org/1999/xlink" x="0px" y="0px"
	 viewBox="0 0 512 512" style="enable-background:new 0 0 512 512;" xml:space="preserve">
<path style="fill:#D0EEEF;" d="M512,256c-51.102-88.337-146.608-147.774-256-147.774S51.102,167.663,0,256
	c51.102,88.337,146.608,147.774,256,147.774S460.898,344.337,512,256z"/>
<circle style="fill:#41BBBE;" cx="256" cy="256" r="146.286"/>
<circle style="fill:#06484A;" cx="256" cy="256" r="78.769"/>
<g>
	<path style="fill:#20AAB0;" d="M75.956,135.033c-4.661,0-8.44-3.778-8.44-8.44V75.956c0-4.662,3.779-8.44,8.44-8.44h50.637
		c4.661,0,8.44,3.778,8.44,8.44s-3.779,8.44-8.44,8.44H84.396v42.198C84.396,131.255,80.617,135.033,75.956,135.033z"/>
	<path style="fill:#20AAB0;" d="M436.044,135.033c-4.662,0-8.44-3.778-8.44-8.44V84.396h-42.198c-4.662,0-8.44-3.778-8.44-8.44
		s3.778-8.44,8.44-8.44h50.637c4.662,0,8.44,3.778,8.44,8.44v50.637C444.484,131.255,440.706,135.033,436.044,135.033z"/>
	<path style="fill:#20AAB0;" d="M126.593,444.484H75.956c-4.661,0-8.44-3.778-8.44-8.44v-50.637c0-4.662,3.779-8.44,8.44-8.44
		s8.44,3.778,8.44,8.44v42.198h42.198c4.661,0,8.44,3.778,8.44,8.44S131.254,444.484,126.593,444.484z"/>
	<path style="fill:#20AAB0;" d="M436.044,444.484h-50.637c-4.662,0-8.44-3.778-8.44-8.44s3.778-8.44,8.44-8.44h42.198v-42.198
		c0-4.662,3.778-8.44,8.44-8.44s8.44,3.778,8.44,8.44v50.637C444.484,440.706,440.706,444.484,436.044,444.484z"/>
</g>
<path style="fill:#14858A;" d="M469.802,247.56H264.44V42.198c0-4.662-3.778-8.44-8.44-8.44c-4.661,0-8.44,3.778-8.44,8.44V247.56
	H42.198c-4.661,0-8.44,3.778-8.44,8.44c0,4.662,3.779,8.44,8.44,8.44H247.56v205.363c0,4.662,3.779,8.44,8.44,8.44
	c4.662,0,8.44-3.778,8.44-8.44V264.44h205.363c4.662,0,8.44-3.778,8.44-8.44C478.242,251.338,474.464,247.56,469.802,247.56z"/>
<g>
</g>
<g>
</g>
<g>
</g>
<g>
</g>
<g>
</g>
<g>
</g>
<g>
</g>
<g>
</g>
<g>
</g>
<g>
</g>
<g>
</g>
<g>
</g>
<g>
</g>
<g>
</g>
<g>
</g>
</svg>
