<?xml version="1.0" encoding="iso-8859-1"?>
<!-- Generator: Adobe Illustrator 17.1.0, SVG Export Plug-In . SVG Version: 6.00 Build 0)  -->
<!DOCTYPE svg PUBLIC "-//W3C//DTD SVG 1.1//EN" "http://www.w3.org/Graphics/SVG/1.1/DTD/svg11.dtd">
<svg version="1.1" id="Capa_1" xmlns="http://www.w3.org/2000/svg" xmlns:xlink="http://www.w3.org/1999/xlink" x="0px" y="0px"
	 viewBox="0 0 192.043 192.043" style="enable-background:new 0 0 192.043 192.043;" xml:space="preserve">
<path d="M172.079,115.21L153.5,102.148l0.708-3.853l0.041-0.452c0-2.856-3.063-17.061-9.122-17.354l-0.121-0.006l-0.121,0.006
	c-3.548,0.172-6.302,5.285-7.92,10.033l-19.921-14.006c0.065-2.214,0.099-4.43,0.099-6.637C117.143,36.003,109.482,0,95.287,0
	C81.09,0,73.43,36.003,73.43,69.879c0,2.542,0.048,5.096,0.134,7.646L53.619,91.548c-1.556-5.006-4.449-10.875-8.255-11.059
	l-0.121-0.006l-0.121,0.006C39.063,80.783,36,94.988,36,97.844l0.98,5.403l-17.02,11.966c-1.46,1.032-2.938,3.148-2.938,5.196
	v29.381c0,2.287,1.825,4.079,4.156,4.079c0.354,0,0.709-0.043,1.053-0.128l46.235-11.324c0.818,0.975,1.655,1.927,2.471,2.854
	c2.4,2.726,4.668,5.3,5.601,7.49c0.699,1.639,1.302,3.216,1.855,4.715l-17.29,28.276c-1.353,2.219-0.862,3.784-0.449,4.52
	c0.632,1.125,1.827,1.771,3.277,1.771c0.543,0,1.134-0.09,1.756-0.267l26.66-7.606c1.586-0.454,4.724-0.449,6.312,0.009
	l26.277,7.583c2.284,0.661,4.169,0.055,5.038-1.494c0.413-0.734,0.902-2.298-0.452-4.519l-17.234-28.186
	c0.009-0.027,0.018-0.054,0.026-0.081c0.736-2.26,1.497-4.596,2.429-7.115c0.75-2.025,3.102-4.575,5.376-7.041
	c0.435-0.471,0.876-0.95,1.316-1.435l48.375,11.848c0.347,0.085,0.702,0.128,1.056,0.128c2.331,0,4.156-1.792,4.156-4.079v-29.381
	C175.021,118.361,173.543,116.245,172.079,115.21z M95.286,76.479c-5.526,0-10.005-10.412-10.005-23.256s4.479-23.256,10.005-23.256
	s10.005,10.412,10.005,23.256S100.812,76.479,95.286,76.479z"/>
<g>
</g>
<g>
</g>
<g>
</g>
<g>
</g>
<g>
</g>
<g>
</g>
<g>
</g>
<g>
</g>
<g>
</g>
<g>
</g>
<g>
</g>
<g>
</g>
<g>
</g>
<g>
</g>
<g>
</g>
</svg>
