<?xml version="1.0" encoding="iso-8859-1"?>
<!-- Generator: Adobe Illustrator 19.0.0, SVG Export Plug-In . SVG Version: 6.00 Build 0)  -->
<svg version="1.1" id="Capa_1" xmlns="http://www.w3.org/2000/svg" xmlns:xlink="http://www.w3.org/1999/xlink" x="0px" y="0px"
	 viewBox="0 0 56.837 56.837" style="enable-background:new 0 0 56.837 56.837;" xml:space="preserve">
<path style="fill:#AFB6BB;" d="M43.598,15.837h-6.271H36.35c-1.826,2.707-4.921,4.488-8.432,4.488s-6.606-1.781-8.432-4.488h-0.976
	H13.24c-2.939,0-5.321,2.382-5.321,5.321v30.358c0,2.939,2.382,5.321,5.321,5.321h30.358c2.939,0,5.321-2.382,5.321-5.321V21.158
	C48.919,18.219,46.536,15.837,43.598,15.837z"/>
<path style="fill:#E7ECED;" d="M27.919,20.326c-1.044,0-2.052-0.159-3-0.451V35c0,1.657,1.343,3,3,3s3-1.343,3-3V19.874
	C29.97,20.167,28.963,20.326,27.919,20.326z"/>
<circle style="fill:#DD352E;" cx="15.151" cy="49.07" r="2.767"/>
<path style="fill:none;stroke:#E7ECED;stroke-width:2;stroke-linecap:round;stroke-miterlimit:10;" d="M36.919,52.837
	c4.422,0,8-3.578,8-8"/>
<path style="fill:#546A79;" d="M30.919,22.199V35c0,1.657-1.343,3-3,3s-3-1.343-3-3V22.199c-5.731,1.356-10,6.493-10,12.638
	c0,7.18,5.82,13,13,13s13-5.82,13-13C40.919,28.692,36.649,23.555,30.919,22.199z"/>
<path style="fill:#38454F;" d="M30.919,25.496V35c0,1.657-1.343,3-3,3s-3-1.343-3-3v-9.504C21.19,26.75,18.5,30.267,18.5,34.419
	c0,5.202,4.217,9.419,9.419,9.419c5.202,0,9.419-4.217,9.419-9.419C37.337,30.267,34.648,26.75,30.919,25.496z"/>
<circle style="fill:#DD352E;" cx="27.919" cy="10.163" r="10.163"/>
<path style="fill:#ED7161;" d="M21.919,10.837c-0.552,0-1-0.447-1-1c0-3.309,2.691-6,6-6c0.552,0,1,0.447,1,1s-0.448,1-1,1
	c-2.206,0-4,1.794-4,4C22.919,10.39,22.471,10.837,21.919,10.837z"/>
<g>
</g>
<g>
</g>
<g>
</g>
<g>
</g>
<g>
</g>
<g>
</g>
<g>
</g>
<g>
</g>
<g>
</g>
<g>
</g>
<g>
</g>
<g>
</g>
<g>
</g>
<g>
</g>
<g>
</g>
</svg>
